<svg width="24" height="23" viewBox="0 0 24 23" fill="none" xmlns="http://www.w3.org/2000/svg">
<path d="M23.5785 8.92763L20.5755 6.48019V2.56605C20.5755 2.12528 20.2169 1.76663 19.7761 1.76663H17.8866C17.4458 1.76663 17.0872 2.12528 17.0872 2.56605V3.63704L13.0746 0.366785C12.7844 0.130304 12.4018 0 11.9975 0C11.5947 0 11.214 0.129505 10.9253 0.364751L0.421514 8.92756C-0.0557363 9.31644 -0.0271028 9.65517 0.0324172 9.82247C0.0917919 9.9894 0.282997 10.2695 0.896075 10.2695H2.33437V21.5301C2.33437 22.3337 2.9864 22.9874 3.78785 22.9874H8.32997C9.12466 22.9874 9.74712 22.3472 9.74712 21.5301V16.9123C9.74712 16.5165 10.1108 16.1562 10.5102 16.1562H13.5625C13.9432 16.1562 14.2529 16.4954 14.2529 16.9123V21.5301C14.2529 22.3201 14.9352 22.9874 15.7427 22.9874H20.2122C21.0136 22.9874 21.6657 22.3337 21.6657 21.5301V10.2695H23.1039C23.717 10.2695 23.9082 9.9894 23.9676 9.82247C24.0271 9.65517 24.0558 9.31644 23.5785 8.92763Z" fill="black"/>
</svg>
