<svg width="24" height="24" viewBox="0 0 24 24" fill="none" xmlns="http://www.w3.org/2000/svg">
<path d="M23.6975 22.2809L16.8116 15.39C18.1691 13.762 18.9856 11.6815 18.9856 9.40909C18.9856 4.22495 14.731 0.00976562 9.49769 0.00976562C4.26437 0.00976562 0 4.22987 0 9.41401C0 14.5981 4.25453 18.8133 9.48786 18.8133C11.711 18.8133 13.7571 18.051 15.3803 16.7771L22.2908 23.6876C22.6941 24.0909 23.2942 24.0909 23.6975 23.6876C24.1008 23.2843 24.1008 22.6842 23.6975 22.2809ZM2.0166 9.41401C2.0166 5.34146 5.37104 2.03128 9.48786 2.03128C13.6047 2.03128 16.9591 5.34146 16.9591 9.41401C16.9591 13.4866 13.6047 16.7967 9.48786 16.7967C5.37104 16.7967 2.0166 13.4816 2.0166 9.41401Z" fill="#AAAAAA"/>
</svg>
