<svg width="24" height="18" viewBox="0 0 24 18" fill="none" xmlns="http://www.w3.org/2000/svg">
<path d="M24 10.4457L21.1669 16.35C20.8126 17.0369 20.1043 17.4684 19.3313 17.4684H2.62643C2.31859 17.4684 2.1189 17.1438 2.25773 16.869L2.26475 16.8551C2.49133 16.4065 2.3569 15.8597 1.94812 15.5674L1.92502 15.5509C0.976118 14.8722 0.413098 13.7773 0.413098 12.6107V11.2719H15.2848V11.2636C15.2848 10.8118 15.651 10.4457 16.1027 10.4457H24ZM14.4585 5.48847H11.5669C11.3387 5.48847 11.1538 5.67341 11.1538 5.90157V10.4457C11.1538 10.6738 11.3387 10.8588 11.5669 10.8588H14.4585C14.6867 10.8588 14.8716 10.6738 14.8716 10.4457V5.90157C14.8717 5.67341 14.6867 5.48847 14.4585 5.48847ZM19.4158 7.14086H16.111C15.8829 7.14086 15.6979 7.3258 15.6979 7.55396V9.20631C15.6979 9.43447 15.8829 9.61945 16.111 9.61945H19.4158C19.6439 9.61945 19.8289 9.43447 19.8289 9.20631V7.55396C19.8289 7.3258 19.6439 7.14086 19.4158 7.14086ZM6.60961 10.8587H9.91439C10.1425 10.8587 10.3275 10.6738 10.3275 10.4457V7.14086C10.3275 6.9127 10.1425 6.72776 9.91439 6.72776H6.60961C6.38145 6.72776 6.19651 6.9127 6.19651 7.14086V10.4457C6.19655 10.6738 6.38149 10.8587 6.60961 10.8587ZM6.39824 4.66223L5.37035 5.48847V10.8587H1.23929V5.48847H0V4.66223H2.89169V3.46435H1.82376V2.98215H2.89169V0.53125H3.30478V2.98215H4.37275V3.46435H3.30478V4.66223H6.39824ZM4.62404 8.0611H3.27973V9.29471H4.62404V8.0611ZM4.62404 6.08419H3.27973V7.31784H4.62404V6.08419Z" fill="black"/>
</svg>
